<?xml version="1.0" encoding="UTF-8"?>
<svg version="1.1" xmlns="http://www.w3.org/2000/svg" width="500" height="500">
<path d="M0 0 C0.80572228 0.00223072 1.61144457 0.00446144 2.44158268 0.00675976 C3.29111043 0.00519977 4.14063818 0.00363978 5.01590919 0.00203252 C7.88494976 -0.00198117 10.75393813 0.00121358 13.62297916 0.00434887 C15.67073949 0.002995 17.71849958 0.00121514 19.76625919 -0.00096118 C25.34460765 -0.00553713 30.92293771 -0.0037453 36.50128651 -0.0005821 C42.32513575 0.00194067 48.14898337 -0.0003958 53.97283268 -0.00196826 C63.75498076 -0.0037902 73.53712129 -0.00138302 83.31926823 0.00337231 C94.64650578 0.00881498 105.97372533 0.00705234 117.30096245 0.00154591 C127.00707656 -0.00298453 136.71318525 -0.00363611 146.41930008 -0.00101542 C152.22475511 0.00054773 158.03020167 0.00074007 163.83565617 -0.00255191 C169.29219885 -0.00542963 174.74871822 -0.00345678 180.20525837 0.00234234 C182.21408518 0.00367048 184.22291394 0.00327493 186.23174 0.00107968 C188.96170801 -0.00162974 191.69160005 0.00174672 194.42156315 0.00675976 C195.22728543 0.00452904 196.03300772 0.00229832 196.86314583 0 C202.31742308 0.01959357 202.31742308 0.01959357 203.43157291 1.13374341 C203.53038885 2.84693286 203.55956261 4.56419144 203.56096745 6.28022778 C203.56411961 7.37806592 203.56727177 8.47590405 203.57051945 9.60701001 C203.5674831 11.39914929 203.5674831 11.39914929 203.56438541 13.22749341 C203.56534214 14.44448925 203.56629887 15.6614851 203.56728458 16.91535962 C203.56796663 19.49450239 203.56611063 22.07364687 203.56194401 24.65278637 C203.55659614 28.61652976 203.56188821 32.58015982 203.56829166 36.54389966 C203.56763089 39.04259782 203.56634973 41.54129592 203.56438541 44.03999341 C203.56640965 45.23475293 203.56843388 46.42951245 203.57051945 47.6604768 C203.56579121 49.30723401 203.56579121 49.30723401 203.56096745 50.98725903 C203.56017185 51.95909131 203.55937626 52.93092358 203.55855656 53.93220532 C203.43157291 56.13374341 203.43157291 56.13374341 202.43157291 57.13374341 C200.31552195 57.25766023 198.19536008 57.31174247 196.07586002 57.33906567 C195.4124712 57.34896527 194.74908237 57.35886487 194.06559086 57.36906445 C191.86340296 57.40076078 189.66119346 57.42546874 187.45891666 57.45014966 C185.93576324 57.47071218 184.41261561 57.49170846 182.88947392 57.51312268 C178.87326078 57.56841588 174.85699553 57.61779303 170.84069157 57.66596997 C166.74528692 57.71613223 162.6499583 57.77184576 158.55461979 57.82710278 C150.51366836 57.93477294 142.4726535 58.03619807 134.43157291 58.13374341 C134.4329556 59.33833407 134.4329556 59.33833407 134.43436623 60.56725991 C134.45641986 80.07868885 134.47298369 99.59011531 134.48338509 119.10155404 C134.4885484 128.53701168 134.49559178 137.97246101 134.50701237 147.40791333 C134.51695812 155.62878024 134.52342608 163.84964114 134.52566141 172.0705139 C134.5269687 176.42616663 134.53005572 180.78180215 134.53730297 185.13744938 C134.54406147 189.23230955 134.54619023 193.32714533 134.5446806 197.42201054 C134.544957 198.92933293 134.54696313 200.43665608 134.55077839 201.94397366 C134.55571291 203.9930184 134.55397111 206.04207605 134.55182743 208.09112561 C134.55321012 209.81533938 134.55321012 209.81533938 134.55462074 211.57438576 C134.43157291 214.13374341 134.43157291 214.13374341 133.43157291 215.13374341 C131.28956968 215.23326633 129.14424587 215.26174019 126.99993229 215.26313794 C126.32839619 215.26489026 125.65686008 215.26664258 124.9649744 215.268448 C122.73506464 215.2728657 120.50523355 215.26992883 118.27532291 215.26655591 C116.73215056 215.26722897 115.1889783 215.26819901 113.64580631 215.26945508 C110.40755551 215.27093194 107.16933224 215.26877787 103.93108463 215.2641145 C99.77114769 215.25841721 95.61127525 215.26169628 91.45134068 215.26768696 C88.26357884 215.27129289 85.0758324 215.27015384 81.88807011 215.26755917 C80.35379879 215.26688999 78.81952609 215.26771802 77.28525639 215.27003872 C75.14453751 215.27256578 73.00392449 215.26872395 70.86321354 215.26313794 C69.03240238 215.26194455 69.03240238 215.26194455 67.16460514 215.26072705 C64.43157291 215.13374341 64.43157291 215.13374341 63.43157291 214.13374341 C63.33480878 212.10879718 63.30970305 210.08041799 63.3113184 208.05316174 C63.31046397 207.41118959 63.30960955 206.76921745 63.30872923 206.1077916 C63.3070727 203.94120286 63.31259859 201.77469033 63.31804752 199.60810864 C63.31832938 198.0611828 63.31817168 196.51425682 63.31760502 194.96733105 C63.317317 190.75470309 63.32321442 186.54210334 63.33017898 182.32948196 C63.33641179 177.93188553 63.33701626 173.53428852 63.33820438 169.13668835 C63.34131791 160.80333828 63.34953159 152.47000126 63.35955387 144.13665694 C63.37071434 134.65193087 63.37622529 125.16720418 63.38124931 115.68247318 C63.39171419 96.16622251 63.40931404 76.64998401 63.43157291 57.13374341 C62.56935627 57.13596402 61.70713963 57.13818463 60.8187952 57.14047253 C52.71051256 57.16047336 44.60223814 57.17571647 36.49393654 57.18555558 C32.32494464 57.19078392 28.15597305 57.19788067 23.98699284 57.20918286 C19.96699606 57.22001349 15.94701887 57.22602061 11.92700863 57.22862065 C10.38994316 57.23047458 8.85287882 57.23409459 7.31582165 57.23947346 C5.17021805 57.24668624 3.02469637 57.24773425 0.87908268 57.2472688 C-0.3444743 57.24948941 -1.56803127 57.25171002 -2.82866573 57.25399792 C-5.56842709 57.13374341 -5.56842709 57.13374341 -6.56842709 56.13374341 C-6.66724302 54.42055395 -6.69641678 52.70329537 -6.69782162 50.98725903 C-6.70254986 49.34050183 -6.70254986 49.34050183 -6.70737362 47.6604768 C-6.70534939 46.46571728 -6.70332516 45.27095776 -6.70123959 44.03999341 C-6.70219631 42.82299756 -6.70315304 41.60600171 -6.70413876 40.35212719 C-6.70482081 37.77298442 -6.7029648 35.19383994 -6.69879818 32.61470044 C-6.69345031 28.65095705 -6.69874238 24.68732699 -6.70514584 20.72358716 C-6.70448506 18.22488899 -6.70320391 15.72619089 -6.70123959 13.22749341 C-6.70326382 12.03273388 -6.70528805 10.83797436 -6.70737362 9.60701001 C-6.70422146 8.50917187 -6.7010693 7.41133374 -6.69782162 6.28022778 C-6.69702602 5.3083955 -6.69623043 4.33656323 -6.69541073 3.33528149 C-6.44272508 -1.04557477 -3.75500123 0.01348921 0 0 Z " fill="#FE3D1A" transform="translate(140.56842708587646,171.8662565946579)"/>
<path d="M0 0 C7.93892706 6.99858813 14.43682418 19.22861412 15.1875 29.82421875 C15.43278098 42.87574874 12.75017785 54.0543985 7.32421875 65.8984375 C7.04255859 66.51710693 6.76089844 67.13577637 6.47070312 67.77319336 C2.6360964 75.69958164 -2.33390561 83.04134307 -7.05078125 90.4609375 C-5.99165527 90.10265869 -4.9325293 89.74437988 -3.84130859 89.37524414 C0.10440893 88.04184713 4.05213752 86.71449324 8.00048828 85.38891602 C9.70611762 84.8153573 11.41120397 84.24018112 13.11572266 83.66333008 C15.57181639 82.8324449 18.02983129 82.00747717 20.48828125 81.18359375 C21.24476959 80.92626968 22.00125793 80.66894562 22.78067017 80.40382385 C26.82438823 79.0554938 30.7050243 78.02741712 34.94921875 77.4609375 C36.29012668 81.2291206 37.62063665 85.00089271 38.94921875 88.7734375 C39.33078125 89.84529297 39.71234375 90.91714844 40.10546875 92.02148438 C40.46640625 93.04951172 40.82734375 94.07753906 41.19921875 95.13671875 C41.70195312 96.5585144 41.70195312 96.5585144 42.21484375 98.0090332 C42.94921875 100.4609375 42.94921875 100.4609375 42.94921875 103.4609375 C22.81257154 110.60934285 2.64578007 117.63928267 -17.64746094 124.33178711 C-23.99176848 126.42631654 -30.32458516 128.53195735 -36.609375 130.80078125 C-37.54966553 131.13996582 -38.48995605 131.47915039 -39.45874023 131.82861328 C-41.11683014 132.43300322 -42.77167606 133.04641713 -44.42211914 133.67138672 C-48.10543659 135.01730361 -50.30921663 135.64402269 -54.05078125 134.4609375 C-55.53188705 128.98019358 -55.22048769 126.07731333 -52.5078125 121.0546875 C-51.31146221 119.01249067 -50.09540194 116.98175429 -48.86328125 114.9609375 C-47.56325037 112.73697494 -46.26778204 110.51033991 -44.9765625 108.28125 C-43.98970459 106.58597168 -43.98970459 106.58597168 -42.98291016 104.85644531 C-23.14094202 70.99944299 -23.14094202 70.99944299 -18.4921875 33.15234375 C-20.3545817 27.52259214 -23.45445249 22.81810935 -28.80078125 20.0234375 C-34.43791731 19.04777934 -41.06366893 19.43844518 -46.05078125 22.4609375 C-46.768361 24.10632545 -47.42875758 25.77709999 -48.05078125 27.4609375 C-48.39238281 28.20472656 -48.73398437 28.94851562 -49.0859375 29.71484375 C-51.68294835 35.55071224 -52.59078782 40.71537067 -52.875 47.08984375 C-53.05078125 49.4609375 -53.05078125 49.4609375 -54.05078125 50.4609375 C-63.42064568 50.26383679 -72.78503147 48.78095441 -82.05078125 47.4609375 C-83.40475663 42.89127058 -82.64191172 39.04616819 -81.55078125 34.5234375 C-81.37208496 33.77852051 -81.19338867 33.03360352 -81.00927734 32.26611328 C-77.45381258 18.47584242 -70.84979478 7.08162494 -58.8828125 -0.90234375 C-40.18156124 -11.71037724 -17.72823808 -13.30462058 0 0 Z " fill="#FC3D1B" transform="translate(426.05078125,74.5390625)"/>
<path d="M0 0 C1.32 0 2.64 0 4 0 C4.99 2.64 5.98 5.28 7 8 C7.99 8 8.98 8 10 8 C10 7.34 10 6.68 10 6 C12.64738916 4.5393715 13.89448334 4 17 4 C18.14947895 7.55293493 18.0868937 8.79976669 16.5625 12.3125 C15.7890625 13.6428125 15.7890625 13.6428125 15 15 C19.455 15.99 19.455 15.99 24 17 C24.495 18.98 24.495 18.98 25 21 C21.04 22.98 21.04 22.98 17 25 C17.433125 25.55429688 17.86625 26.10859375 18.3125 26.6796875 C18.869375 27.40414062 19.42625 28.12859375 20 28.875 C20.556875 29.59429687 21.11375 30.31359375 21.6875 31.0546875 C23 33 23 33 23 35 C18.31034294 36.11658501 15.46236469 35.80619523 11 34 C11.08378906 34.62648437 11.16757812 35.25296875 11.25390625 35.8984375 C11.40666016 37.12433594 11.40666016 37.12433594 11.5625 38.375 C11.71912109 39.59316406 11.71912109 39.59316406 11.87890625 40.8359375 C12 43 12 43 11 45 C8.75 44.875 8.75 44.875 6 44 C3.6875 40.9375 3.6875 40.9375 2 38 C0.02 40.31 -1.96 42.62 -4 45 C-5.32 44.67 -6.64 44.34 -8 44 C-8 40.7 -8 37.4 -8 34 C-8.721875 34.33 -9.44375 34.66 -10.1875 35 C-13.01697427 36.00603529 -15.02895466 36.16977402 -18 36 C-18.68359375 34.203125 -18.68359375 34.203125 -19 32 C-17.30072764 29.61774035 -15.1932158 27.96941827 -13 26 C-15.64 24.35 -18.28 22.7 -21 21 C-20.67 19.68 -20.34 18.36 -20 17 C-17.03 16.34 -14.06 15.68 -11 15 C-11.495 14.278125 -11.99 13.55625 -12.5 12.8125 C-14.07919285 9.85151341 -14.28178312 8.28746971 -14 5 C-11 4 -11 4 -8.95703125 4.99609375 C-8.24933594 5.47175781 -7.54164063 5.94742188 -6.8125 6.4375 C-6.09707031 6.91058594 -5.38164062 7.38367188 -4.64453125 7.87109375 C-4.10183594 8.24363281 -3.55914062 8.61617187 -3 9 C-2.86722656 8.43410156 -2.73445313 7.86820313 -2.59765625 7.28515625 C-2.42105469 6.55167969 -2.24445313 5.81820312 -2.0625 5.0625 C-1.80146484 3.96615234 -1.80146484 3.96615234 -1.53515625 2.84765625 C-1 1 -1 1 0 0 Z M-3 9 C-2 11 -2 11 -2 11 Z " fill="#FC3D1A" transform="translate(362,131)"/>
<path d="M0 0 C22.44 0 44.88 0 68 0 C70.066087 4.13217401 70.24782595 5.83486951 70.24050903 10.32745361 C70.24325836 11.62873199 70.24600769 12.93001038 70.24884033 14.27072144 C70.24176245 15.71075532 70.23449283 17.15078827 70.22705078 18.59082031 C70.22648658 20.10863233 70.2268034 21.62644489 70.22793579 23.14425659 C70.22850995 27.26377084 70.2167454 31.38316878 70.20278788 35.50265598 C70.19029108 39.80814081 70.18911085 44.11362826 70.18673706 48.41912842 C70.1805192 56.57177661 70.16410424 64.72437121 70.14403808 72.8769958 C70.1216886 82.15864567 70.11068804 91.4402981 70.10064721 100.72196817 C70.07973828 119.81468201 70.04305822 138.90732238 70 158 C102.67 158.495 102.67 158.495 136 159 C136 157.35 136 155.7 136 154 C136.66 154.33 137.32 154.66 138 155 C137.67 156.65 137.34 158.3 137 160 C128.02079223 160.02312566 119.04159463 160.04091623 110.06236362 160.05181217 C105.89337172 160.05704051 101.72440013 160.06413726 97.55541992 160.07543945 C93.53542314 160.08627008 89.51544595 160.09227721 85.49543571 160.09487724 C83.95837025 160.09673118 82.42130591 160.10035119 80.88424873 160.10573006 C78.73864513 160.11294284 76.59312345 160.11399084 74.44750977 160.11352539 C73.22395279 160.115746 72.00039581 160.11796661 70.73976135 160.12025452 C68 160 68 160 67 159 C66.90323586 156.97505378 66.87813014 154.94667458 66.87974548 152.91941833 C66.87889106 152.27744619 66.87803663 151.63547404 66.87715632 150.9740482 C66.87549979 148.80745946 66.88102567 146.64094693 66.88647461 144.47436523 C66.88675647 142.92743939 66.88659877 141.38051341 66.8860321 139.83358765 C66.88574408 135.62095968 66.89164151 131.40835994 66.89860606 127.19573855 C66.90483888 122.79814212 66.90544334 118.40054511 66.90663147 114.00294495 C66.909745 105.66959487 66.91795868 97.33625785 66.92798096 89.00291353 C66.93914143 79.51818746 66.94465238 70.03346078 66.94967639 60.54872978 C66.96014127 41.03247761 66.97848702 21.51624334 67 2 C44.56 2 22.12 2 -1 2 C-0.67 1.34 -0.34 0.68 0 0 Z " fill="#FB4923" transform="translate(137,227)"/>
<path d="M0 0 C66 0 132 0 200 0 C200 0.66 200 1.32 200 2 C195.15779719 3.26543376 190.43089157 3.10039572 185.46826172 3.03759766 C184.02620487 3.02556604 184.02620487 3.02556604 182.55501556 3.01329136 C179.34650501 2.98522474 176.13812265 2.94966191 172.9296875 2.9140625 C170.64987586 2.89249807 168.37006002 2.8713741 166.09024048 2.85066223 C159.95586766 2.79355676 153.82157946 2.72985475 147.68728638 2.66480637 C142.61542295 2.611848 137.5435254 2.56275194 132.47162247 2.51374722 C88.31356869 2.08686291 44.15636106 1.57530979 0 1 C0 0.67 0 0.34 0 0 Z " fill="#FD5240" transform="translate(141,172)"/>
<path d="M0 0 C0.33 0 0.66 0 1 0 C1.00423194 0.759987 1.00846388 1.519974 1.01282406 2.30299091 C1.11605075 20.78035434 1.22467649 39.25767876 1.33933926 57.73497486 C1.39465818 66.6703898 1.44813802 75.60580873 1.49731445 84.54125977 C1.54017257 92.32781703 1.5864547 100.11434506 1.63687855 107.90085715 C1.66346635 112.02516649 1.68831913 116.14947008 1.70907402 120.27381325 C1.7286526 124.15366503 1.75280007 128.03346122 1.78049088 131.91326332 C1.78985483 133.33910615 1.79753247 134.76496118 1.80341911 136.1908226 C1.81169129 138.1341009 1.82655695 140.07734784 1.84178162 142.02058411 C1.84823417 143.10922162 1.85468672 144.19785913 1.8613348 145.31948566 C1.88576371 148.10194923 1.88576371 148.10194923 3 151 C35.67 151.495 35.67 151.495 69 152 C69 150.35 69 148.7 69 147 C69.66 147.33 70.32 147.66 71 148 C70.67 149.65 70.34 151.3 70 153 C61.02079223 153.02312566 52.04159463 153.04091623 43.06236362 153.05181217 C38.89337172 153.05704051 34.72440013 153.06413726 30.55541992 153.07543945 C26.53542314 153.08627008 22.51544595 153.09227721 18.49543571 153.09487724 C16.95837025 153.09673118 15.42130591 153.10035119 13.88424873 153.10573006 C11.73864513 153.11294284 9.59312345 153.11399084 7.44750977 153.11352539 C6.22395279 153.115746 5.00039581 153.11796661 3.73976135 153.12025452 C1 153 1 153 0 152 C-0.09666937 150.03838396 -0.12187097 148.07323355 -0.12025452 146.10923767 C-0.12162918 144.82891159 -0.12300385 143.54858551 -0.12442017 142.22946167 C-0.12088055 140.79742409 -0.11724573 139.36538674 -0.11352539 137.93334961 C-0.11324353 136.43568422 -0.11340124 134.9380187 -0.1139679 133.44035339 C-0.11425591 129.36201828 -0.10835864 125.28371233 -0.10139394 121.20538402 C-0.09516095 116.94792372 -0.09455665 112.69046282 -0.09336853 108.43299866 C-0.09025505 100.36526813 -0.08204144 92.29755109 -0.07201904 84.22982651 C-0.06085842 75.04739221 -0.05534758 65.86495728 -0.05032361 56.68251789 C-0.03985884 37.7883376 -0.02225907 18.89416988 0 0 Z " fill="#BF4040" transform="translate(204,234)"/>
<path d="M0 0 C1.14947895 3.55293493 1.0868937 4.79976669 -0.4375 8.3125 C-1.2109375 9.6428125 -1.2109375 9.6428125 -2 11 C2.455 11.99 2.455 11.99 7 13 C7.33 14.32 7.66 15.64 8 17 C4.04 18.98 4.04 18.98 0 21 C0.99 22.65 1.98 24.3 3 26 C1.35 25.67 -0.3 25.34 -2 25 C-2 24.34 -2 23.68 -2 23 C-2.66 23 -3.32 23 -4 23 C-4.33 21.68 -4.66 20.36 -5 19 C-3.68 18.67 -2.36 18.34 -1 18 C-1.61875 17.484375 -2.2375 16.96875 -2.875 16.4375 C-5.47476742 13.45541385 -6.11949123 10.81553799 -7 7 C-8.32 7.33 -9.64 7.66 -11 8 C-10.34 6.68 -9.68 5.36 -9 4 C-8.34 4 -7.68 4 -7 4 C-7 3.34 -7 2.68 -7 2 C-4.35261084 0.5393715 -3.10551666 0 0 0 Z " fill="#ED452B" transform="translate(379,135)"/>
<path d="M0 0 C0.66 0.99 1.32 1.98 2 3 C1.34 4.32 0.68 5.64 0 7 C3.24509304 9.03977277 6.40608886 10.66511872 10 12 C10.33 11.01 10.66 10.02 11 9 C13.475 9.495 13.475 9.495 16 10 C16 9.34 16 8.68 16 8 C16.7734375 7.81824219 17.546875 7.63648438 18.34375 7.44921875 C25.49744774 5.72608694 25.49744774 5.72608694 32.4375 3.3125 C35.6383942 2.13322319 37.65016057 1.68595255 41 2 C38.5744139 3.6170574 36.90683819 4.50181755 34.23461914 5.4362793 C33.48696793 5.6996257 32.73931671 5.96297211 31.9690094 6.23429871 C30.76425209 6.65005913 30.76425209 6.65005913 29.53515625 7.07421875 C28.70543808 7.36230911 27.87571991 7.65039948 27.02085876 7.94721985 C25.26740948 8.55385299 23.51311866 9.15805837 21.75805664 9.76000977 C19.0724688 10.68406992 16.39275042 11.62393132 13.71289062 12.56445312 C12.00815059 13.15202349 10.30308287 13.73864418 8.59765625 14.32421875 C7.79650894 14.60746506 6.99536163 14.89071136 6.16993713 15.18254089 C5.41913376 15.43643082 4.66833038 15.69032074 3.89477539 15.9519043 C3.23764053 16.1790361 2.58050568 16.40616791 1.90345764 16.6401825 C-0.3494267 17.0660534 -1.83724773 16.69626875 -4 16 C-5.56659619 9.25158562 -5.56659619 9.25158562 -3.953125 5.6875 C-2.70581148 3.72543379 -1.41655623 1.84299357 0 0 Z " fill="#EA4427" transform="translate(376,193)"/>
<path d="M0 0 C22.44 0 44.88 0 68 0 C68.495 1.98 68.495 1.98 69 4 C68.34 4 67.68 4 67 4 C67 3.34 67 2.68 67 2 C44.56 2 22.12 2 -1 2 C-0.67 1.34 -0.34 0.68 0 0 Z " fill="#D25041" transform="translate(137,227)"/>
<path d="M0 0 C0.99 0.495 0.99 0.495 2 1 C1.67 2.65 1.34 4.3 1 6 C-21.77 6 -44.54 6 -68 6 C-68.33 4.35 -68.66 2.7 -69 1 C-68.34 1 -67.68 1 -67 1 C-66.67 1.99 -66.34 2.98 -66 4 C-33.33 4.495 -33.33 4.495 0 5 C0 3.35 0 1.7 0 0 Z " fill="#CE5942" transform="translate(273,381)"/>
<path d="M0 0 C7.30900181 9.11007388 7.54157886 18.85250171 7 30 C6.34 30 5.68 30 5 30 C4.67 25.05 4.34 20.1 4 15 C2.35 14.67 0.7 14.34 -1 14 C-0.649375 12.80375 -0.29875 11.6075 0.0625 10.375 C1.01712172 6.62326988 0.94983153 3.7993261 0 0 Z " fill="#E3492C" transform="translate(434,86)"/>
<path d="M0 0 C-0.66 2.97 -1.32 5.94 -2 9 C-8.75 7.25 -8.75 7.25 -11 5 C-10.75 2.9375 -10.75 2.9375 -10 1 C-6.78548731 -0.60725635 -3.56387464 -0.05748185 0 0 Z " fill="#E14B2D" transform="translate(352,147)"/>
<path d="M0 0 C0 0.66 0 1.32 0 2 C-1.98 2.99 -1.98 2.99 -4 4 C-4 4.66 -4 5.32 -4 6 C-5.65 6.66 -7.3 7.32 -9 8 C-9.66 7.34 -10.32 6.68 -11 6 C-11.99 6.33 -12.98 6.66 -14 7 C-13.67 7.99 -13.34 8.98 -13 10 C-14.32 10 -15.64 10 -17 10 C-17.33 10.99 -17.66 11.98 -18 13 C-18.66 13 -19.32 13 -20 13 C-20.99 14.485 -20.99 14.485 -22 16 C-22.66 15.67 -23.32 15.34 -24 15 C-19.1973135 7.79597024 -9.00147337 0 0 0 Z " fill="#E64B30" transform="translate(380,69)"/>
<path d="M0 0 C4.35535069 1.16142685 6.64619703 2.07699505 9 6 C8.195625 6.2475 7.39125 6.495 6.5625 6.75 C3.828919 7.72238859 3.828919 7.72238859 3.1875 10.125 C3.125625 10.74375 3.06375 11.3625 3 12 C-1.6741573 5.71910112 -1.6741573 5.71910112 -1 1 C-0.67 0.67 -0.34 0.34 0 0 Z " fill="#F53F21" transform="translate(349,135)"/>
<path d="M0 0 C3 1 3 1 5 4 C5 5.32 5 6.64 5 8 C5.66 8 6.32 8 7 8 C7.33 8.99 7.66 9.98 8 11 C8.99 11 9.98 11 11 11 C10.175 11.78375 9.35 12.5675 8.5 13.375 C5.77011494 15.63721264 5.77011494 15.63721264 6 18 C6.66 18.33 7.32 18.66 8 19 C7.01 20.98 6.02 22.96 5 25 C4.34 25 3.68 25 3 25 C3.10699219 24.01 3.21398437 23.02 3.32421875 22 C4.02477652 14.65900939 4.44234498 8.75229207 1 2 C0.67 1.34 0.34 0.68 0 0 Z " fill="#E6452B" transform="translate(404,100)"/>
<path d="M0 0 C1.32 1.32 2.64 2.64 4 4 C1.53846154 8.8 1.53846154 8.8 -1.1875 9.8125 C-1.785625 9.874375 -2.38375 9.93625 -3 10 C-2.67 11.32 -2.34 12.64 -2 14 C-2.598125 14.268125 -3.19625 14.53625 -3.8125 14.8125 C-5.97224808 15.98493467 -7.35790256 17.19369282 -9 19 C-7.6077541 14.37324343 -5.70479016 10.35313769 -3.375 6.125 C-2.74335938 4.97257813 -2.11171875 3.82015625 -1.4609375 2.6328125 C-0.97882813 1.76398438 -0.49671875 0.89515625 0 0 Z " fill="#E34C2D" transform="translate(388,170)"/>
<path d="M0 0 C1 3 1 3 0.22729492 4.97705078 C-0.18415771 5.70907715 -0.59561035 6.44110352 -1.01953125 7.1953125 C-1.46490234 7.99324219 -1.91027344 8.79117188 -2.36914062 9.61328125 C-2.84544922 10.44214844 -3.32175781 11.27101562 -3.8125 12.125 C-4.27720703 12.96160156 -4.74191406 13.79820312 -5.22070312 14.66015625 C-8.72356719 20.8617836 -8.72356719 20.8617836 -11 22 C-11 20.68 -11 19.36 -11 18 C-10.34 18 -9.68 18 -9 18 C-8.896875 17.236875 -8.79375 16.47375 -8.6875 15.6875 C-7.93200845 12.73421485 -7.13007477 12.04132166 -5 10 C-4.28552357 7.89667109 -4.28552357 7.89667109 -4 6 C-4.66 5.67 -5.32 5.34 -6 5 C-5.34 5 -4.68 5 -4 5 C-3.566875 4.0409375 -3.566875 4.0409375 -3.125 3.0625 C-2 1 -2 1 0 0 Z " fill="#E5452B" transform="translate(432,138)"/>
<path d="M0 0 C0.2475 0.61875 0.495 1.2375 0.75 1.875 C2.20628639 4.35068687 3.37812506 4.95125002 6 6 C6.33 4.68 6.66 3.36 7 2 C7.99 2.33 8.98 2.66 10 3 C9.34 3 8.68 3 8 3 C7.731875 3.763125 7.46375 4.52625 7.1875 5.3125 C6.03868178 7.91245703 5.32721056 9.38885423 3 11 C0.8125 10.6875 0.8125 10.6875 -1 10 C-1.125 3.375 -1.125 3.375 0 0 Z " fill="#EA4730" transform="translate(355,165)"/>
<path d="M0 0 C0.66 0.33 1.32 0.66 2 1 C2 1.66 2 2.32 2 3 C4.3431213 2.74438677 6.67843403 2.40729228 9 2 C9.33 1.34 9.66 0.68 10 0 C10.66 1.65 11.32 3.3 12 5 C7.31034294 6.11658501 4.46236469 5.80619523 0 4 C0 4.99 0 5.98 0 7 C-0.66 7 -1.32 7 -2 7 C-2 5.35 -2 3.7 -2 2 C-1.34 2 -0.68 2 0 2 C0 1.34 0 0.68 0 0 Z " fill="#E14C32" transform="translate(373,161)"/>
<path d="M0 0 C0 1.65 0 3.3 0 5 C-1.65 5.33 -3.3 5.66 -5 6 C-5 6.66 -5 7.32 -5 8 C-3.35 8 -1.7 8 0 8 C-0.33 8.66 -0.66 9.32 -1 10 C-2.65 10 -4.3 10 -6 10 C-6.6796875 8.203125 -6.6796875 8.203125 -7 6 C-5.8203125 4.296875 -5.8203125 4.296875 -4.125 2.75 C-3.57070313 2.22921875 -3.01640625 1.7084375 -2.4453125 1.171875 C-1 0 -1 0 0 0 Z " fill="#E44632" transform="translate(350,157)"/>
<path d="M0 0 C1.0625 1.875 1.0625 1.875 2 4 C1.67 4.66 1.34 5.32 1 6 C-6.02673515 5.49656013 -13.01940909 4.95812032 -20 4 C-20 3.67 -20 3.34 -20 3 C-12.97216188 1.64849267 -6.97671158 2.59302983 0 4 C0 2.68 0 1.36 0 0 Z " fill="#DF4D39" transform="translate(371,119)"/>
<path d="M0 0 C1.32 0 2.64 0 4 0 C5.85776765 3.13498292 6.20140476 5.37471432 6 9 C5.38125 8.34 4.7625 7.68 4.125 7 C2.24362573 4.7715451 2.24362573 4.7715451 0 5 C-0.66 5.66 -1.32 6.32 -2 7 C-1.125 1.125 -1.125 1.125 0 0 Z " fill="#DD4A2F" transform="translate(362,131)"/>
<path d="M0 0 C0.33 0 0.66 0 1 0 C1.33 2.64 1.66 5.28 2 8 C1.360625 8.28875 0.72125 8.5775 0.0625 8.875 C-2.15206079 9.82823451 -2.15206079 9.82823451 -3 12 C-3.66 12 -4.32 12 -5 12 C-3.68938409 7.76570244 -2.05643741 3.92592596 0 0 Z " fill="#E84A2E" transform="translate(396,154)"/>
<path d="M0 0 C0 0.66 0 1.32 0 2 C-1.98 2.99 -1.98 2.99 -4 4 C-4 4.66 -4 5.32 -4 6 C-5.65 6.66 -7.3 7.32 -9 8 C-9.33 6.35 -9.66 4.7 -10 3 C-3.375 0 -3.375 0 0 0 Z " fill="#EF4526" transform="translate(380,69)"/>
<path d="M0 0 C1.125 1.6875 1.125 1.6875 2 4 C0.96294901 8.49388762 -1.67466686 10.93719316 -5 14 C-3.45730076 9.27934033 -1.92205381 4.58335908 0 0 Z " fill="#E44B32" transform="translate(402,140)"/>
<path d="M0 0 C0.66 0 1.32 0 2 0 C3.25664978 2.90600261 4 4.79604584 4 8 C2.02 8.33 0.04 8.66 -2 9 C-1.34 6.03 -0.68 3.06 0 0 Z " fill="#E9432B" transform="translate(465,170)"/>
<path d="M0 0 C0.66 0.99 1.32 1.98 2 3 C1.0409375 3.7425 1.0409375 3.7425 0.0625 4.5 C-2.81515269 7.98806387 -2.70230736 10.53461041 -3 15 C-5 12 -5 12 -4.875 9.1875 C-3.87031216 5.52756572 -2.24226653 3.03790949 0 0 Z " fill="#DD492E" transform="translate(376,193)"/>
<path d="M0 0 C0.66 2.64 1.32 5.28 2 8 C0.88625 7.071875 0.88625 7.071875 -0.25 6.125 C-2.48801188 4.39562719 -4.43739987 3.13893339 -7 2 C-4.35261084 0.5393715 -3.10551666 0 0 0 Z " fill="#DD4C36" transform="translate(461,152)"/>
<path d="M0 0 C2.64 0 5.28 0 8 0 C6.515 1.485 6.515 1.485 5 3 C5.99 4.32 6.98 5.64 8 7 C6.35 6.67 4.7 6.34 3 6 C3 5.34 3 4.68 3 4 C2.34 4 1.68 4 1 4 C0.67 2.68 0.34 1.36 0 0 Z " fill="#E24D2F" transform="translate(374,154)"/>
<path d="M0 0 C0.33 0 0.66 0 1 0 C0.67 2.31 0.34 4.62 0 7 C-2.4375 6.625 -2.4375 6.625 -5 6 C-5.33 5.34 -5.66 4.68 -6 4 C-5.01 3.67 -4.02 3.34 -3 3 C-1.9805881 2.01979625 -0.97753644 1.02196992 0 0 Z " fill="#E74C2B" transform="translate(373,169)"/>
<path d="M0 0 C-1.41519715 2.0343459 -2.54982123 2.90410393 -4.98046875 3.421875 C-6.98176954 3.66273952 -8.9909944 3.83532741 -11 4 C-11 3.34 -11 2.68 -11 2 C-9.73392393 1.46770674 -8.46189588 0.94955456 -7.1875 0.4375 C-6.47980469 0.14746094 -5.77210938 -0.14257812 -5.04296875 -0.44140625 C-3 -1 -3 -1 0 0 Z " fill="#E6462B" transform="translate(437,161)"/>
<path d="M0 0 C1 3 1 3 -0.4375 6.1875 C-1.2109375 7.5796875 -1.2109375 7.5796875 -2 9 C-2.66 8.67 -3.32 8.34 -4 8 C-4 7.34 -4 6.68 -4 6 C-4.66 5.67 -5.32 5.34 -6 5 C-5.34 5 -4.68 5 -4 5 C-3.71125 4.360625 -3.4225 3.72125 -3.125 3.0625 C-2 1 -2 1 0 0 Z " fill="#F2482A" transform="translate(432,138)"/>
<path d="M0 0 C-1.70828921 2.10633718 -2.52148416 2.93801608 -5.26171875 3.29296875 C-6.06222656 3.25816406 -6.86273438 3.22335938 -7.6875 3.1875 C-8.89986328 3.14689453 -8.89986328 3.14689453 -10.13671875 3.10546875 C-11.05904297 3.05326172 -11.05904297 3.05326172 -12 3 C-12 2.34 -12 1.68 -12 1 C-8.0186217 -0.3271261 -4.14954773 -0.06915913 0 0 Z " fill="#E84F2C" transform="translate(396,66)"/>
<path d="M0 0 C5.75 1.625 5.75 1.625 8 5 C5.69 4.34 3.38 3.68 1 3 C0.67 4.32 0.34 5.64 0 7 C-1 6 -1 6 -1.125 3.5 C-1 1 -1 1 0 0 Z " fill="#E05237" transform="translate(349,135)"/>
<path d="M0 0 C0.66 0 1.32 0 2 0 C4 3 4 3 4 6 C2.35 5.67 0.7 5.34 -1 5 C-0.67 3.35 -0.34 1.7 0 0 Z " fill="#FC3E16" transform="translate(344,147)"/>
<path d="M0 0 C1.32 1.32 2.64 2.64 4 4 C2.515 6.475 2.515 6.475 1 9 C0.34 8.67 -0.32 8.34 -1 8 C-1.125 2.25 -1.125 2.25 0 0 Z " fill="#F24127" transform="translate(388,170)"/>
<path d="M0 0 C0.66 0.66 1.32 1.32 2 2 C4.60280568 1.67958603 4.60280568 1.67958603 7 1 C6.67 1.99 6.34 2.98 6 4 C3.36 4.33 0.72 4.66 -2 5 C-1.125 1.125 -1.125 1.125 0 0 Z " fill="#E14D2D" transform="translate(418,163)"/>
<path d="M0 0 C0.33 0.66 0.66 1.32 1 2 C-2.32534757 3.10844919 -4.62182575 2.84454356 -8 2 C-8 1.34 -8 0.68 -8 0 C-5.09660535 -1.45169732 -3.09125158 -0.72348441 0 0 Z " fill="#F1411D" transform="translate(353,163)"/>
<path d="M0 0 C0.33 0 0.66 0 1 0 C1.17835515 4.54805635 0.99785435 7.8794254 -1 12 C-1.66 12 -2.32 12 -3 12 C-2.01 8.04 -1.02 4.08 0 0 Z " fill="#E6503B" transform="translate(406,127)"/>
<path d="M0 0 C3.37503669 1.1858237 5.64722731 2.27573689 8 5 C6.35 5.33 4.7 5.66 3 6 C3 4.68 3 3.36 3 2 C1.68 1.67 0.36 1.34 -1 1 C-0.67 0.67 -0.34 0.34 0 0 Z " fill="#E24C30" transform="translate(417,70)"/>
<path d="M0 0 C2.31 0 4.62 0 7 0 C4.60236815 2.39763185 3.66726502 2.34280586 0.375 2.625 C-0.44226563 2.69976562 -1.25953125 2.77453125 -2.1015625 2.8515625 C-2.72804688 2.90054688 -3.35453125 2.94953125 -4 3 C-2.68 2.67 -1.36 2.34 0 2 C0 1.34 0 0.68 0 0 Z " fill="#EC482F" transform="translate(456,179)"/>
<path d="M0 0 C1.5 1.375 1.5 1.375 3 3 C3 3.66 3 4.32 3 5 C1.35 5 -0.3 5 -2 5 C-2 4.01 -2 3.02 -2 2 C-1.34 2 -0.68 2 0 2 C0 1.34 0 0.68 0 0 Z " fill="#E4442A" transform="translate(382,161)"/>
<path d="M0 0 C1.32 0.66 2.64 1.32 4 2 C4 2.66 4 3.32 4 4 C2.35 4 0.7 4 -1 4 C-1 1 -1 1 0 0 Z " fill="#EF4626" transform="translate(430,82)"/>
<path d="M0 0 C2.31 0.33 4.62 0.66 7 1 C4.4345406 3.5654594 2.52313332 3.54046087 -1 4 C-0.67 2.68 -0.34 1.36 0 0 Z " fill="#E9442B" transform="translate(427,188)"/>
<path d="M0 0 C2.0625 0.4375 2.0625 0.4375 4 1 C-0.75 5.875 -0.75 5.875 -3 7 C-1.125 1.125 -1.125 1.125 0 0 Z " fill="#E94328" transform="translate(382,182)"/>
</svg>
